<?xml version="1.0" encoding="utf-8"?>
<!-- Generator: Adobe Illustrator 26.0.1, SVG Export Plug-In . SVG Version: 6.00 Build 0)  -->
<svg version="1.1" id="Layer_1" xmlns="http://www.w3.org/2000/svg" xmlns:xlink="http://www.w3.org/1999/xlink" x="0px" y="0px"
	 viewBox="0 0 800 800" style="enable-background:new 0 0 800 800;" xml:space="preserve">
<style type="text/css">
	.st0{fill:#FFFFFF;}
</style>
<g>
	<path class="st0" d="M188.8,284.5h150.9v12H202.6v90.3h128.9v12H202.6v99.1h138.6v12H188.8V284.5z M353.2,284.5h16l71,99.1
		l72.6-99.1l98.8-125.9L449.4,394L533,509.8h-16.7l-76.1-105.4l-76.4,105.4h-16.3L431.8,394L353.2,284.5z M539,296.5v-12h171.9v12
		h-79.2v213.3h-13.8V296.5H539z M0,284.5h17.3l238.4,356.8l-98.5-131.4L14.5,301.5l-0.6,208.3H0V284.5z M709.5,494.2
		c-2.8,0-4.9-2.2-4.9-5s2.1-5,4.9-5c2.9,0,4.9,2.2,4.9,5S712.4,494.2,709.5,494.2z M723.1,481h7.4c0.1,4,3,6.7,7.3,6.7
		c4.8,0,7.5-2.9,7.5-8.3V445h7.5v34.4c0,9.8-5.7,15.4-15,15.4C729.1,494.8,723.1,489.3,723.1,481z M762.8,480.6h7.5
		c0.6,4.6,5.1,7.5,11.6,7.5c6.1,0,10.5-3.1,10.5-7.4c0-3.7-2.8-5.9-9.3-7.4l-6.3-1.5c-8.8-2.1-12.8-6.3-12.8-13.4
		c0-8.7,7.1-14.4,17.7-14.4c9.9,0,17.1,5.8,17.5,13.9h-7.3c-0.7-4.5-4.6-7.3-10.3-7.3c-6,0-9.9,2.9-9.9,7.2c0,3.5,2.6,5.5,8.9,6.9
		l5.3,1.3c10,2.3,14.1,6.4,14.1,13.7c0,9.3-7.2,15.1-18.7,15.1C770.5,494.8,763.3,489.2,762.8,480.6z"/>
</g>
</svg>
